<?xml version="1.0" encoding="utf-8"?>
<svg xmlns="http://www.w3.org/2000/svg" xmlns:xlink="http://www.w3.org/1999/xlink">
    <svg id="changelog" x="0" y="0" version="1.1" xmlns="http://www.w3.org/2000/svg" xmlns:xlink="http://www.w3.org/1999/xlink"
         viewBox="0 0 32 32" width="96" height="96" style="fill: rgb(255, 255, 255);">
        <g fill="none" stroke="none" stroke-width="1" stroke-linecap="butt" stroke-linejoin="miter"
           stroke-miterlimit="10" stroke-dasharray="" stroke-dashoffset="0" font-family="none" font-weight="normal"
           font-size="12" text-anchor="start" mix-blend-mode="normal">
            <g>
                <g>
                    <path d="M0,32l0,-32l32,0l0,32z" fill="none" font-family="sans-serif"/>
                    <g fill="#ffffff" font-family="Bitstream Vera Sans">
                        <path d="M15.21152,29l-8.21152,0l-1,0l0,-1l0,-24l0,-1l1,0l12,0l0.40625,0l0.3125,0.28125l6,6l0.28125,0.3125l0,0.40625l0,4.23972c-0.64821,-0.13025 -1.31758,-0.19813 -2,-0.20204l0,-3.03768l-5,0l-1,0l0,-1l0,-5l-10,0l0,22l6.36315,0c0.20816,0.69713 0.49169,1.36672 0.84838,2z M19.57618,15l-8.57618,0l0,-2l10,0l0,1.45572c-0.48909,0.14464 -0.96471,0.32632 -1.42382,0.54428z M15.22881,19l-4.22881,0l0,-2l5.77222,0c-0.61082,0.59101 -1.12643,1.26569 -1.54341,2z M13.98712,23l-2.98712,0l0,-2l3.37749,0c-0.19397,0.64626 -0.32466,1.31687 -0.39037,2z M20,9l2.5625,0l-2.5625,-2.5625z"/>
                    </g>
                    <g fill="#ffffff" font-family="sans-serif">
                        <g id="IOS_copy">
                            <path d="M25.9,26l0,2l2.4,0c-0.1,0.1 -0.1,0.1 -0.2,0.2c-2.3,2.3 -6.2,2.3 -8.5,0c-2.3,-2.3 -2.3,-6.2 0,-8.5c2.3,-2.3 6.2,-2.3 8.5,0c1,1 1.6,2.3 1.7,3.6l2,-0.1c-0.1,-1.8 -0.9,-3.5 -2.3,-4.8c-3.1,-3.1 -8.2,-3.1 -11.3,0c-3.1,3.1 -3.1,8.2 0,11.3c1.5,1.5 3.6,2.3 5.7,2.3c2.1,0 4.1,-0.8 5.7,-2.3c0.1,-0.1 0.3,-0.3 0.4,-0.4l0,2.7l2,0l0,-6z"/>
                        </g>
                    </g>
                </g>
            </g>
        </g>
    </svg>
    <svg id="repo" xmlns="http://www.w3.org/2000/svg" viewBox="0 0 50 50" width="100" height="100" style="fill: rgb(255, 255, 255);">
        <path style="text-indent:0;text-align:start;line-height:normal;text-transform:none;block-progression:tb;-inkscape-font-specification:Sans" d="M 10 2 C 8.3550302 2 7 3.3550302 7 5 L 7 41 C 7 42.64497 8.3550302 44 10 44 L 13 44 L 13 47 L 13 48.625 L 14.4375 47.90625 L 18 46.125 L 21.5625 47.90625 L 23 48.625 L 23 47 L 23 44 L 40 44 C 41.64497 44 43 42.64497 43 41 L 43 5 C 43 3.3550302 41.64497 2 40 2 L 10 2 z M 10 4 L 40 4 C 40.56503 4 41 4.4349698 41 5 L 41 34 L 9 34 L 9 5 C 9 4.4349698 9.4349698 4 10 4 z M 13 7 L 13 8 L 13 12 L 13 13 L 14 13 L 18 13 L 19 13 L 19 12 L 19 8 L 19 7 L 18 7 L 14 7 L 13 7 z M 15 9 L 17 9 L 17 11 L 15 11 L 15 9 z M 13 16 L 13 17 L 13 21 L 13 22 L 14 22 L 18 22 L 19 22 L 19 21 L 19 17 L 19 16 L 18 16 L 14 16 L 13 16 z M 15 18 L 17 18 L 17 20 L 15 20 L 15 18 z M 13 25 L 13 26 L 13 30 L 13 31 L 14 31 L 18 31 L 19 31 L 19 30 L 19 26 L 19 25 L 18 25 L 14 25 L 13 25 z M 15 27 L 17 27 L 17 29 L 15 29 L 15 27 z M 9 36 L 41 36 L 41 41 C 41 41.56503 40.56503 42 40 42 L 23 42 L 23 39 L 23 38 L 22 38 L 14 38 L 13 38 L 13 39 L 13 42 L 10 42 C 9.4349698 42 9 41.56503 9 41 L 9 36 z M 15 40 L 21 40 L 21 45.375 L 18.4375 44.09375 L 18 43.875 L 17.5625 44.09375 L 15 45.375 L 15 40 z"/>
    </svg>
    <svg id="discord" xmlns="http://www.w3.org/2000/svg" viewBox="0 0 32 32" width="96" height="96" style="fill: rgb(255, 255, 255);">
        <path style="text-indent:0;text-align:start;line-height:normal;text-transform:none;block-progression:tb;-inkscape-font-specification:Sans" d="M 12.65625 4.90625 L 11.875 5 C 11.875 5 8.3696481 5.3828732 5.8125 7.4375 L 5.78125 7.4375 L 5.75 7.46875 C 5.1774699 7.997402 4.9258115 8.6459602 4.53125 9.59375 C 4.1366885 10.54154 3.715591 11.752904 3.34375 13.09375 C 2.600068 15.775442 2 19.027802 2 22 L 2 22.25 L 2.125 22.5 C 3.0505624 24.125542 4.6941059 25.161949 6.21875 25.875 C 7.7433941 26.588051 9.0579959 26.97057 9.96875 27 L 10.5625 27.03125 L 10.875 26.5 L 11.96875 24.5625 C 13.127347 24.822671 14.464603 25 16 25 C 17.535397 25 18.872626 24.822668 20.03125 24.5625 L 21.125 26.5 L 21.4375 27.03125 L 22.03125 27 C 22.942004 26.97057 24.256606 26.588051 25.78125 25.875 C 27.305894 25.161949 28.949438 24.125542 29.875 22.5 L 30 22.25 L 30 22 C 30 19.027802 29.399932 15.775442 28.65625 13.09375 C 28.284409 11.752904 27.863312 10.54154 27.46875 9.59375 C 27.074188 8.6459602 26.82253 7.997402 26.25 7.46875 L 26.21875 7.4375 L 26.1875 7.4375 C 23.630352 5.3828732 20.125 5 20.125 5 L 19.34375 4.90625 L 19.0625 5.625 C 19.0625 5.625 18.774449 6.3543498 18.59375 7.1875 C 17.461371 7.0362261 16.533867 7 16 7 C 15.466133 7 14.538629 7.0362261 13.40625 7.1875 C 13.225551 6.3543498 12.9375 5.625 12.9375 5.625 L 12.65625 4.90625 z M 11.28125 7.1875 C 11.325016 7.3291146 11.368882 7.4483477 11.40625 7.5625 C 10.113115 7.8816609 8.7337425 8.3716234 7.46875 9.15625 L 8.53125 10.84375 C 11.125303 9.2347577 14.852326 9 16 9 C 17.147674 9 20.874697 9.2347577 23.46875 10.84375 L 24.53125 9.15625 C 23.266257 8.3716234 21.886885 7.8816609 20.59375 7.5625 C 20.631119 7.4483477 20.674984 7.3291146 20.71875 7.1875 C 21.650407 7.3747917 23.432834 7.8029395 24.90625 8.96875 C 24.89895 8.97302 25.282 9.5510677 25.625 10.375 C 25.977157 11.220929 26.365716 12.351971 26.71875 13.625 C 27.396257 16.068068 27.925038 19.037784 27.96875 21.65625 C 27.340295 22.618973 26.173793 23.484306 24.9375 24.0625 C 23.859964 24.566446 23.006955 24.75086 22.5 24.84375 L 22 24 C 22.296059 23.891494 22.589175 23.768223 22.84375 23.65625 C 24.381119 22.980051 25.21875 22.25 25.21875 22.25 L 23.90625 20.75 C 23.90625 20.75 23.342631 21.266949 22.03125 21.84375 C 20.719869 22.420551 18.71659 23 16 23 C 13.28341 23 11.280411 22.420573 9.96875 21.84375 C 8.6570887 21.266927 8.09375 20.75 8.09375 20.75 L 6.78125 22.25 C 6.78125 22.25 7.6186613 22.980073 9.15625 23.65625 C 9.4108611 23.768219 9.7039258 23.891495 10 24 L 9.5 24.84375 C 8.9930451 24.75086 8.1400359 24.566446 7.0625 24.0625 C 5.8262068 23.484306 4.6597053 22.618973 4.03125 21.65625 C 4.0749615 19.037784 4.6037429 16.068068 5.28125 13.625 C 5.634284 12.351971 6.0228428 11.220929 6.375 10.375 C 6.7180001 9.5510677 7.1010436 8.9730183 7.09375 8.96875 C 8.5671656 7.8029395 10.349593 7.3747917 11.28125 7.1875 z M 12.5 14 C 11.725493 14 11.042938 14.44275 10.625 15 C 10.207062 15.55725 10 16.24505 10 17 C 10 17.75495 10.207062 18.44275 10.625 19 C 11.042938 19.55725 11.725493 20 12.5 20 C 13.274507 20 13.957062 19.55725 14.375 19 C 14.792938 18.44275 15 17.75495 15 17 C 15 16.24505 14.792938 15.55725 14.375 15 C 13.957062 14.44275 13.274507 14 12.5 14 z M 19.5 14 C 18.725493 14 18.042938 14.44275 17.625 15 C 17.207062 15.55725 17 16.24505 17 17 C 17 17.75495 17.207062 18.44275 17.625 19 C 18.042938 19.55725 18.725493 20 19.5 20 C 20.274507 20 20.957062 19.55725 21.375 19 C 21.792938 18.44275 22 17.75495 22 17 C 22 16.24505 21.792938 15.55725 21.375 15 C 20.957062 14.44275 20.274507 14 19.5 14 z M 12.5 16 C 12.55392 16 12.625044 16.02089 12.75 16.1875 C 12.874956 16.354108 13 16.650381 13 17 C 13 17.349619 12.874956 17.645892 12.75 17.8125 C 12.625044 17.979108 12.55392 18 12.5 18 C 12.44608 18 12.374956 17.979108 12.25 17.8125 C 12.125044 17.645892 12 17.349619 12 17 C 12 16.650381 12.125044 16.354108 12.25 16.1875 C 12.374956 16.020892 12.44608 16 12.5 16 z M 19.5 16 C 19.55392 16 19.625044 16.02089 19.75 16.1875 C 19.874956 16.354108 20 16.650381 20 17 C 20 17.349619 19.874956 17.645892 19.75 17.8125 C 19.625044 17.979108 19.55392 18 19.5 18 C 19.44608 18 19.374956 17.979108 19.25 17.8125 C 19.125044 17.645892 19 17.349619 19 17 C 19 16.650381 19.125044 16.354108 19.25 16.1875 C 19.374956 16.020892 19.44608 16 19.5 16 z" color="#000" overflow="visible" font-family="Sans"/>
    </svg>
</svg>